<svg version="1.1" viewBox="0 0 512 512" xmlns="http://www.w3.org/2000/svg">
<g fill="#2ab348">
<path d="m234.8 234.78 42.427 42.427c-5.43 5.434-12.934 8.796-21.223 8.796-16.569 0-30-13.431-30-30 0-8.289 3.362-15.793 8.796-21.223z"/>
<path d="m372.8 372.78 42.427 42.427c-5.43 5.434-12.934 8.796-21.223 8.796-16.569 0-30-13.431-30-30 0-8.289 3.362-15.793 8.796-21.223z"/>
<path d="m90.547 90.527 9.8993 9.8997c-5.0952 5.095-9.9419 10.438-14.52 16.01l-10.817-8.887c4.8677-5.925 10.021-11.606 15.438-17.023z"/>
<path d="m49.589 145.67 12.341 6.61c-6.7461 12.595-12.3 25.92-16.513 39.826l-13.399-4.06c4.4837-14.799 10.394-28.978 17.57-42.376z"/>
<path d="m22 256c0-7.742 0.376-15.396 1.1106-22.945l13.934 1.356c-0.6909 7.099-1.0448 14.301-1.0448 21.589s0.3539 14.49 1.0448 21.589l-13.934 1.356c-0.7346-7.549-1.1106-15.203-1.1106-22.945z"/>
<path d="m32.018 323.95 13.399-4.06c4.213 13.906 9.7671 27.231 16.513 39.826l-12.341 6.61c-7.1767-13.398-13.087-27.577-17.57-42.376z"/>
<path d="m152.28 450.07-6.61 12.341c13.398 7.177 27.577 13.087 42.376 17.571l4.06-13.399c-13.906-4.213-27.231-9.767-39.826-16.513z"/>
<path d="m233.06 488.89 1.356-13.934c7.099 0.691 14.301 1.045 21.589 1.045s14.49-0.354 21.589-1.045l1.356 13.934c-7.549 0.735-15.203 1.111-22.945 1.111s-15.396-0.376-22.945-1.111z"/>
<path d="m366.33 462.41c-13.398 7.177-27.577 13.087-42.376 17.571l-4.06-13.399c13.906-4.213 27.231-9.767 39.826-16.513z"/>
<path d="m148 394c0 16.569-13.431 30-30 30s-30-13.431-30-30 13.431-30 30-30 30 13.431 30 30z"/>
</g>
<g fill="#1d8f36">
<path d="m277.59 37.045 1.356-13.934c-7.549-0.7346-15.203-1.1106-22.945-1.1106s-15.396 0.376-22.945 1.1106l1.356 13.934c7.099-0.6909 14.301-1.0448 21.589-1.0448s14.49 0.3539 21.589 1.0448z"/>
<path d="m342.93 53.839c4.333-3.4538 9.025-6.4778 14.009-9.0073-10.581-5.0674-21.603-9.3628-32.992-12.813l-4.06 13.399c7.877 2.3862 15.566 5.2026 23.043 8.4221z"/>
<path d="m466.58 192.11 13.399-4.06c-3.451-11.389-7.746-22.411-12.813-32.992-2.53 4.984-5.554 9.676-9.008 14.009 3.22 7.477 6.036 15.167 8.422 23.043z"/>
<path d="m277.22 277.2c5.423-5.429 8.777-12.925 8.777-21.204 0-16.569-13.431-30-30-30-8.279 0-15.775 3.354-21.203 8.777z"/>
<path d="m415.22 415.2-42.426-42.427c5.428-5.423 12.924-8.777 21.203-8.777 16.569 0 30 13.431 30 30 0 8.279-3.354 15.775-8.777 21.204z"/>
<path d="m100.45 100.43c5.089-5.0885 10.426-9.9288 15.991-14.501l-8.887-10.817c-5.918 4.8619-11.592 10.008-17.003 15.419z"/>
<path d="m488.89 278.94-13.935-1.356c0.691-7.099 1.045-14.301 1.045-21.589s-0.354-14.49-1.045-21.589l13.935-1.356c0.734 7.549 1.11 15.203 1.11 22.945s-0.376 15.396-1.11 22.945z"/>
<path d="m188.05 32.018 4.059 13.399c-13.906 4.213-27.231 9.7671-39.826 16.513l-6.61-12.341c13.399-7.1767 27.578-13.087 42.377-17.57z"/>
<path d="m462.41 366.33-12.341-6.61c6.746-12.595 12.3-25.92 16.513-39.826l13.399 4.06c-4.484 14.799-10.394 28.978-17.571 42.376z"/>
</g>
<path d="m219.23 219.23c-9.41 9.41-15.23 22.41-15.23 36.769 0 10.379 3.041 20.047 8.28 28.164l-66.116 66.116c-8.116-5.239-17.785-8.28-28.164-8.28-12.907 0-24.716 4.702-33.806 12.488-16.664-29.007-26.194-62.635-26.194-98.488 0-54.676 22.162-104.18 57.993-140.01zm122.77 174.77c0 12.907 4.703 24.716 12.488 33.806-29.007 16.665-62.635 26.194-98.488 26.194s-69.481-9.529-98.488-26.194c7.785-9.09 12.488-20.899 12.488-33.806 0-10.379-3.041-20.048-8.28-28.164l66.116-66.116c8.116 5.239 17.785 8.28 28.164 8.28s20.048-3.041 28.164-8.28l66.116 66.116c-5.239 8.116-8.28 17.785-8.28 28.164z" clip-rule="evenodd" fill="#1969e2" fill-rule="evenodd"/>
<path d="m440.98 185.22c-13.305 9.315-29.501 14.78-46.975 14.78-45.287 0-82-36.713-82-82 0-17.473 5.466-33.67 14.78-46.974-21.979-8.4153-45.841-13.026-70.78-13.026-54.676 0-104.18 22.162-140.01 57.993l103.24 103.24c9.41-9.411 22.41-15.231 36.769-15.231 28.719 0 52 23.281 52 52 0 10.379-3.04 20.048-8.279 28.164l66.116 66.116c8.116-5.239 17.785-8.28 28.163-8.28 12.908 0 24.716 4.703 33.807 12.488 16.664-29.007 26.193-62.635 26.193-98.488 0-24.939-4.61-48.8-13.025-70.78zm13.025-67.22c0 33.137-26.862 60-60 60-33.137 0-60-26.863-60-60 0-33.137 26.863-60 60-60 33.138 0 60 26.863 60 60z" clip-rule="evenodd" fill="#2143ba" fill-rule="evenodd"/>
</svg>
