<svg version="1.1" viewBox="0 0 512 512" xmlns="http://www.w3.org/2000/svg">
<g fill="#2ab348">
<path d="m234.796 234.777c28.36288-21.15057 69.47383 13.78918 42.427 42.427-5.43 5.434-12.934 8.796-21.223 8.796-16.569 0-30-13.431-30-30 0-8.289 3.81197-15.37726 8.796-21.223z"/>
<path d="m372.796 372.777c25.0735-22.41695 65.12719 16.64149 42.427 42.427-5.43 5.434-12.934 8.796-21.223 8.796-16.569 0-30-13.431-30-30 0-8.289 3.362-15.793 8.796-21.223z"/>
<path d="m90.5467 90.5273c8.3125-7.90625 18.60555 1.502807 9.8993 9.8997-5.102106 5.08808-9.9419 10.438-14.5202 16.01l-10.8172-8.887c4.8677-5.925 10.0207-11.6059 15.4381-17.0227z"/>
<path d="m49.5888 145.674 12.3413 6.61c-6.7461 12.595-12.3002 25.92-16.5132 39.826l-13.3986-4.06c4.4837-14.799 10.3938-28.978 17.5705-42.376z"/>
<path d="m22 256c0-7.742 0.376-15.396 1.1106-22.945l13.9342 1.356c-0.6909 7.099-1.0448 14.301-1.0448 21.589s0.3539 14.49 1.0448 21.589l-13.9342 1.356c-0.7346-7.549-1.1106-15.203-1.1106-22.945z"/>
<path d="m32.0183 323.95 13.3986-4.06c4.213 13.906 9.7671 27.231 16.5132 39.826l-12.3413 6.61c-7.1767-13.398-13.0868-27.577-17.5705-42.376z"/>
<path d="m152.284 450.07-6.61 12.341c13.398 7.177 27.577 13.087 42.376 17.571l4.06-13.399c-13.906-4.213-27.231-9.767-39.826-16.513z"/>
<path d="m233.055 488.889 1.356-13.934c7.099 0.691 14.301 1.045 21.589 1.045s14.49-0.354 21.589-1.045l1.356 13.934c-7.549 0.735-15.203 1.111-22.945 1.111s-15.396-0.376-22.945-1.111z"/>
<path d="m366.326 462.411c-13.398 7.177-27.577 13.087-42.376 17.571l-4.06-13.399c13.906-4.213 27.231-9.767 39.826-16.513z"/>
<path d="m148 394c0 16.569-13.431 30-30 30s-30-13.431-30-30 13.431-30 30-30 30 13.431 30 30z"/>
</g>
<g fill="#1d8f36">
<path d="m277.589 37.0448 1.356-13.9342c-7.549-0.7346-15.203-1.1106-22.945-1.1106s-15.396 0.376-22.945 1.1106l1.356 13.9342c7.099-0.6909 14.301-1.0448 21.589-1.0448s14.49 0.3539 21.589 1.0448z"/>
<path d="m342.933 53.839c4.333-3.4538 9.025-6.4778 14.009-9.0073-10.581-5.0674-21.603-9.3628-32.992-12.8134l-4.06 13.3986c7.877 2.3862 15.566 5.2026 23.043 8.4221z"/>
<path d="m466.583 192.11 13.399-4.06c-3.451-11.389-7.746-22.411-12.813-32.992-2.53 4.984-5.554 9.676-9.008 14.009 3.22 7.477 6.036 15.167 8.422 23.043z"/>
<path d="m277.223 277.204c5.423-5.429 8.777-12.925 8.777-21.204 0-16.569-13.431-30-30-30-8.279 0-15.775 3.354-21.203 8.777z"/>
<path d="m415.223 415.204-42.426-42.427c5.428-5.423 12.924-8.777 21.203-8.777 16.569 0 30 13.431 30 30 0 8.279-3.354 15.775-8.777 21.204z"/>
<path d="m100.446 100.427c5.089-5.0885 10.426-9.9288 15.991-14.5012l-8.887-10.8172c-5.918 4.8619-11.5922 10.0084-17.0031 15.4187z"/>
<path d="m488.89 278.945-13.935-1.356c0.691-7.099 1.045-14.301 1.045-21.589s-0.354-14.49-1.045-21.589l13.935-1.356c0.734 7.549 1.11 15.203 1.11 22.945s-0.376 15.396-1.11 22.945z"/>
<path d="m188.051 32.0183 4.059 13.3986c-13.906 4.213-27.231 9.7671-39.826 16.5132l-6.61-12.3413c13.399-7.1767 27.578-13.0868 42.377-17.5705z"/>
<path d="m462.411 366.326-12.341-6.61c6.746-12.595 12.3-25.92 16.513-39.826l13.399 4.06c-4.484 14.799-10.394 28.978-17.571 42.376z"/>
</g>
<path d="m219.23 219.231c-9.41 9.41-15.23 22.41-15.23 36.769 0 10.379 3.041 20.047 8.28 28.164l-66.116 66.116c-8.116-5.239-17.785-8.28-28.164-8.28-12.907 0-24.7159 4.702-33.8065 12.488-16.6641-29.007-26.1935-62.635-26.1935-98.488 0-54.676 22.1618-104.176 57.993-140.007 30.22881-24.925514 122.987 86.8005 103.237 103.238zm122.77 174.769c0 12.907 4.703 24.716 12.488 33.806-29.007 16.665-62.635 26.194-98.488 26.194s-69.481-9.529-98.488-26.194c7.785-9.09 12.488-20.899 12.488-33.806 0-10.379-3.041-20.048-8.28-28.164l66.116-66.116c8.116 5.239 17.785 8.28 28.164 8.28s20.048-3.041 28.164-8.28l66.116 66.116c-5.239 8.116-8.28 17.785-8.28 28.164z" clip-rule="evenodd" fill="#1969e2" fill-rule="evenodd"/>
<path d="m440.975 185.22c-13.305 9.315-29.501 14.78-46.975 14.78-45.287 0-82-36.713-82-82 0-17.473 5.466-33.67 14.78-46.9741-21.979-8.4153-45.841-13.0259-70.78-13.0259-54.676 0-104.176 22.162-140.007 57.993l103.238 103.238c9.41-9.411 22.41-15.231 36.769-15.231 28.719 0 52 23.281 52 52 0 10.379-3.04 20.048-8.279 28.164l66.116 66.116c8.116-5.239 17.785-8.28 28.163-8.28 12.908 0 24.716 4.703 33.807 12.488 16.664-29.007 26.193-62.635 26.193-98.488 0-24.939-4.61-48.8-13.025-70.78zm13.025-67.22c0 33.137-26.862 60-60 60-33.137 0-60-26.863-60-60 0-33.1371 26.863-60 60-60 33.138 0 60 26.8629 60 60z" clip-rule="evenodd" fill="#2143ba" fill-rule="evenodd"/>
</svg>
