<svg viewBox="0 0 512 512" fill="none" xmlns="http://www.w3.org/2000/svg"><path d="M234.796 234.777c28.363-21.15 69.474 13.79 42.427 42.427C271.793 282.638 264.289 286 256 286c-16.569 0-30-13.431-30-30 0-8.289 3.812-15.377 8.796-21.223zm138 138c25.073-22.417 65.127 16.641 42.427 42.427C409.793 420.638 402.289 424 394 424c-16.569 0-30-13.431-30-30 0-8.289 3.362-15.793 8.796-21.223zM90.547 90.527c8.312-7.906 18.605 1.503 9.899 9.9a218.503 218.503 0 0 0-14.52 16.01l-10.817-8.887a235.297 235.297 0 0 1 15.438-17.023zm-40.958 55.147 12.341 6.61a218.54 218.54 0 0 0-16.513 39.826l-13.399-4.06a232.516 232.516 0 0 1 17.57-42.376zM22 256c0-7.742.376-15.396 1.11-22.945l13.935 1.356A222.835 222.835 0 0 0 36 256c0 7.288.354 14.49 1.045 21.589l-13.934 1.356A236.856 236.856 0 0 1 22 256Zm10.018 67.95 13.399-4.06a218.54 218.54 0 0 0 16.513 39.826l-12.341 6.61a232.516 232.516 0 0 1-17.57-42.376Zm120.266 126.12-6.61 12.341a232.518 232.518 0 0 0 42.376 17.571l4.06-13.399a218.546 218.546 0 0 1-39.826-16.513zm80.771 38.819 1.356-13.934A222.803 222.803 0 0 0 256 476c7.288 0 14.49-.354 21.589-1.045l1.356 13.934A236.728 236.728 0 0 1 256 490c-7.742 0-15.396-.376-22.945-1.111zm133.271-26.478a232.518 232.518 0 0 1-42.376 17.571l-4.06-13.399a218.546 218.546 0 0 0 39.826-16.513zM148 394c0 16.569-13.431 30-30 30-16.569 0-30-13.431-30-30 0-16.569 13.431-30 30-30 16.569 0 30 13.431 30 30z" fill="#2ab348"/><path d="m277.589 37.045 1.356-13.934A236.856 236.856 0 0 0 256 22c-7.742 0-15.396.376-22.945 1.11l1.356 13.935A222.835 222.835 0 0 1 256 36c7.288 0 14.49.354 21.589 1.045zm65.344 16.794a82.069 82.069 0 0 1 14.009-9.007 232.353 232.353 0 0 0-32.992-12.814l-4.06 13.399a218.26 218.26 0 0 1 23.043 8.422zm123.65 138.271 13.399-4.06a232.447 232.447 0 0 0-12.813-32.992 82.09 82.09 0 0 1-9.008 14.009 218.186 218.186 0 0 1 8.422 23.043zm-189.36 85.094C282.646 271.775 286 264.279 286 256c0-16.569-13.431-30-30-30-8.279 0-15.775 3.354-21.203 8.777zm138 138-42.426-42.427C378.225 367.354 385.721 364 394 364c16.569 0 30 13.431 30 30 0 8.279-3.354 15.775-8.777 21.204zM100.446 100.427a221.381 221.381 0 0 1 15.991-14.501l-8.887-10.817a235.268 235.268 0 0 0-17.003 15.418ZM488.89 278.945l-13.935-1.356A222.803 222.803 0 0 0 476 256c0-7.288-.354-14.49-1.045-21.589l13.935-1.356A237.048 237.048 0 0 1 490 256c0 7.742-.376 15.396-1.11 22.945zM188.051 32.018l4.059 13.399a218.54 218.54 0 0 0-39.826 16.513l-6.61-12.341a232.555 232.555 0 0 1 42.377-17.57zm274.36 334.308-12.341-6.61a218.546 218.546 0 0 0 16.513-39.826l13.399 4.06a232.518 232.518 0 0 1-17.571 42.376z" fill="#1d8f36"/><path fill-rule="evenodd" clip-rule="evenodd" d="M219.23 219.231C209.82 228.641 204 241.641 204 256c0 10.379 3.041 20.047 8.28 28.164l-66.116 66.116C138.048 345.041 128.379 342 118 342c-12.907 0-24.716 4.702-33.806 12.488C67.529 325.481 58 291.853 58 256c0-54.676 22.162-104.176 57.993-140.007 30.229-24.926 122.987 86.8 103.237 103.238ZM342 394c0 12.907 4.703 24.716 12.488 33.806C325.481 444.471 291.853 454 256 454s-69.481-9.529-98.488-26.194C165.297 418.716 170 406.907 170 394c0-10.379-3.041-20.048-8.28-28.164l66.116-66.116c8.116 5.239 17.785 8.28 28.164 8.28 10.379 0 20.048-3.041 28.164-8.28l66.116 66.116C345.041 373.952 342 383.621 342 394Z" fill="#1969e2"/><path fill-rule="evenodd" clip-rule="evenodd" d="M440.975 185.22C427.67 194.535 411.474 200 394 200c-45.287 0-82-36.713-82-82 0-17.473 5.466-33.67 14.78-46.974C304.801 62.61 280.939 58 256 58c-54.676 0-104.176 22.162-140.007 57.993l103.238 103.238C228.641 209.82 241.641 204 256 204c28.719 0 52 23.281 52 52 0 10.379-3.04 20.048-8.279 28.164l66.116 66.116c8.116-5.239 17.785-8.28 28.163-8.28 12.908 0 24.716 4.703 33.807 12.488C444.471 325.481 454 291.853 454 256c0-24.939-4.61-48.8-13.025-70.78zM454 118c0 33.137-26.862 60-60 60-33.137 0-60-26.863-60-60s26.863-60 60-60c33.138 0 60 26.863 60 60z" fill="#2143ba"/></svg>